<svg xmlns="http://www.w3.org/2000/svg" viewBox="0 0 64 64" role="img" aria-label="Muliateko Giroa">
  <rect width="64" height="64" rx="14" fill="#FBF6EC"/>
  <defs>
    <linearGradient id="cup" x1="0" y1="0" x2="0" y2="1">
      <stop offset="0" stop-color="#B45309"/>
      <stop offset="1" stop-color="#92400E"/>
    </linearGradient>
  </defs>
  <g fill="none" stroke="#C2691C" stroke-width="2.4" stroke-linecap="round">
    <path d="M26 17c-1.8-1.8-1.8-3.8 0-5.6"/>
    <path d="M32 17c-1.8-1.8-1.8-3.8 0-5.6"/>
    <path d="M38 17c-1.8-1.8-1.8-3.8 0-5.6"/>
  </g>
  <path d="M16 22h30v12a15 15 0 0 1-15 15h0a15 15 0 0 1-15-15z" fill="url(#cup)"/>
  <path d="M46 26h4a5 5 0 0 1 0 10h-4" fill="none" stroke="#92400E" stroke-width="3.6" stroke-linecap="round"/>
  <path d="M31 30c0 5 0 9 0 12M31 33c-2.6 0-4-1.4-4-4 2.6 0 4 1.4 4 4zm0 0c2.6 0 4-1.4 4-4-2.6 0-4 1.4-4 4zm0 5c-2.6 0-4-1.4-4-4 2.6 0 4 1.4 4 4zm0 0c2.6 0 4-1.4 4-4-2.6 0-4 1.4-4 4z" fill="none" stroke="#FBF6EC" stroke-width="1.8" stroke-linecap="round" stroke-linejoin="round"/>
</svg>
