<svg xmlns="http://www.w3.org/2000/svg" viewBox="0 0 48 48" role="img" aria-label="Muliateko Giroa">
  <defs>
    <linearGradient id="mgCup" x1="0" y1="0" x2="0" y2="1">
      <stop offset="0" stop-color="#B45309"/>
      <stop offset="1" stop-color="#92400E"/>
    </linearGradient>
  </defs>
  <!-- steam -->
  <g fill="none" stroke="#C2691C" stroke-width="2" stroke-linecap="round">
    <path d="M19 11c-1.6-1.6-1.6-3.4 0-5"/>
    <path d="M24 11c-1.6-1.6-1.6-3.4 0-5"/>
    <path d="M29 11c-1.6-1.6-1.6-3.4 0-5"/>
  </g>
  <!-- saucer -->
  <ellipse cx="24" cy="40" rx="16" ry="3" fill="#92400E" opacity=".25"/>
  <!-- cup body -->
  <path d="M12 16h22v9a11 11 0 0 1-11 11h0a11 11 0 0 1-11-11z" fill="url(#mgCup)"/>
  <!-- handle -->
  <path d="M34 19h3a4 4 0 0 1 0 8h-3" fill="none" stroke="#92400E" stroke-width="3" stroke-linecap="round"/>
  <!-- wheat / leaf accent on cup -->
  <path d="M23 22c0 4 0 7 0 9M23 24c-2 0-3-1-3-3 2 0 3 1 3 3zm0 0c2 0 3-1 3-3-2 0-3 1-3 3zm0 4c-2 0-3-1-3-3 2 0 3 1 3 3zm0 0c2 0 3-1 3-3-2 0-3 1-3 3z" fill="none" stroke="#FBF6EC" stroke-width="1.4" stroke-linecap="round" stroke-linejoin="round"/>
</svg>
